<?xml version="1.0" encoding="UTF-8"?>
<svg version="1.1" viewBox="0 0 1250 2048" width="400" height="655" xmlns="http://www.w3.org/2000/svg">
<path transform="translate(4)" d="m0 0h272l5 6v177l23-12 18-8 28-11 36-13 45-12 28-6 45-7 19-2 30-2h60l41 3 47 7 25 5 39 10 26 8 27 10 28 11 19 9 16 8 21 11 20 12 16 10 21 14 11 8 19 14 11 9 9 7 10 9 7 6 8 7 15 14 16 16 7 8 9 11 8 8 6 8 7 8 9 12 10 13 11 16 10 15 10 16 15 26 14 27 9 19 13 31 9 24 10 31 9 34 8 38 5 34 3 26 3 39v41l-4 50-5 38-6 32-7 30-8 29-11 33-12 30-13 29-8 17-12 22-14 24-26 39-12 16-4 5-9 12-4 4-7 9-9 10-2 1-3 5-12 13-28 28-9 7h-2l-2 4-10 9-13 10-10 8-12 9-14 10-13 9-22 14-25 15-32 17-31 14-36 14-34 11-52 13-35 6-29 4-41 3-23 1h-14l-39-2-32-3-53-8-7-1-24 8-1 587-104 1h-34l-1 4-3 5h-272l-5-5v-2039z"/>
<path transform="translate(579,115)" d="m0 0 41 1 37 3 41 6 27 5 49 13 27 9 43 17 28 13 29 15 15 9 18 11 21 14 18 13 17 13 14 11 11 10 11 9 13 13 8 7 9 9 7 8 14 15 9 11 12 14 10 13 13 18 22 33 9 15 13 23 18 36 14 33 9 24 9 27 11 41 8 39 4 26 4 38 1 13 1 29v18l-1 32-3 37-5 35-6 32-11 44-11 35-11 29-15 34-14 29-11 20-12 20-18 27-14 20-11 14-13 16-13 15-9 10-15 16-14 14-8 7-14 13-11 9-12 10-16 12-19 14-17 11-19 12-24 14-27 14-28 13-36 14-23 8-27 8-37 9-28 5-34 5-35 3-27 1h-23l-30-1-26-2-37-5-22-4 2-3 16-7 19-9 23-13 21-13 20-14 15-12 11-9 15-13 33-33 9-11 10-11 12-16 10-13 14-20 11-18 15-26 19-38 15-36 8-21 10-32 7-26 8-35 6-33 4-34 2-22v-87l-4-43-6-42-9-42-9-34-12-36-11-28-11-25-12-25-12-22-15-25-10-15-13-18-14-18-9-11-12-14-8-8-7-8-18-18-8-7-14-12-17-13-15-11-20-13-24-14-34-17-28-11-31-10-24-6-38-6-22-2-44-2v-89l5-3 16-8 26-12 37-14 30-10 42-11 25-5 38-6 30-3 15-1z" fill="#FEFEFE"/>
<path transform="translate(7,6)" d="m0 0h268v1260l-1 44-1 1v727l2 3-2 1h-266l-1-1v-2034z" fill="#FEFEFE"/>
<path transform="translate(419,919)" d="m0 0 6 1 13 22 1 1 25 4 5 3-1 5-8 8-10 8-1 4 4 20-1 5-4 3-5-1-20-10-7 1-18 9h-6l-3-2v-7l3-16v-5l-15-14-5-5 2-4 9-3 19-3 3-3 10-18z" fill="#FEFEFE"/>
<path transform="translate(485,581)" d="m0 0 5 1 8 13 6 10 24 4 6 3v5l-8 8-11 9 1 10 2 10v8l-4 3-6-1-20-10-5 1-21 10-5-1-2-1-1-5 4-20-1-4-7-7-8-7-4-4 1-4 6-3 25-4 2-5 9-16z" fill="#FEFEFE"/>
<path transform="translate(560,1075)" d="m0 0 5 1 8 13 6 10 24 4 6 3v5l-8 8-11 9 1 10 2 10v8l-4 3-6-1-20-10-5 1-21 10-5-1-2-1-1-5 4-20-1-4-7-7-8-7-4-4 1-4 6-3 24-4 12-21z" fill="#FEFEFE"/>
</svg>
