<?xml version="1.0" encoding="UTF-8"?>
<svg version="1.1" viewBox="0 0 2048 1635" width="159" height="127" xmlns="http://www.w3.org/2000/svg">
<path transform="translate(559,117)" d="m0 0 720 1h320l104-1h55l42 1 16 3 16 7 13 9 10 9 10 13 8 16 4 13 1 7 1 646v202l-1 397-1 17-3 12-5 12-9 15-12 13-9 7-16 8-15 4-26 2h-1245l-11-2-18-8-12-8-13-13-7-10-8-17-4-14-2-25v-278l1-90 2-11 7-9 7-6 12-6 9-1 14 7 9 8 5 10 2 9v62l2 21 6 21 8 16 11 12 12 9 18 10 13 4 10 1 75 1 21 2 15 5 14 8 11 9 8 9 8 14 7 16 3 16 2 28 4 17 6 13 6 11 9 10 10 8 11 7 9 4 15 3 11 1h78l17-3 14-5 14-8 10-8 8-9 8-13 7-21 2-11 1-26 4-20 5-12 6-10 8-10 11-10 18-10 9-3 33-4 12-3 17-8 11-8 3-3h2l2-4 7-8 6-10 5-15 3-16v-88l-5-19-5-12-7-11-12-13-12-9-15-7-12-3-7-1-18-1h-61l-20 2-15 5-11 6-10 8-3 1-2 4-8 9-8 14-5 13-3 14-1 37-6 17-8 16-12 13-7 7-12 7-27 9-9 2-7-3v2l-10-2-16-5-14-7-10-9-9-10-10-18-5-12-2-12-1-28-2-14-6-16-8-15-11-12-10-8-10-6-19-7-14-2h-43l-15-3-18-7-11-8-13-12-10-14-7-16-5-19-1-63-4-16-7-12-8-8-14-7-14-3h-43l-9-3-4-7-2-6 1-10 3-5 4-2 7-1 60-1 17 1 13 3 10 5 9 7 7 7 8 13 5 16 4 24 4 12 8 13 11 11 14 8 12 4 9 1h85l26-2 15-5 16-8 11-9 9-9 6-9 5-11 5-19 1-8 1-19v-57l-2-20-5-14-9-17-8-10-12-9-16-8-17-5-5-1-15-1-101-1-12-4-12-7-12-11-6-9-5-12-4-14-2-15-4-15-5-10-9-10-10-7-14-6-11-3h-22l-15-3-13-5-11-8-11-11-8-11-8-16-2-10-1-18v-228l2-21 4-13 6-12 7-11 10-11 15-11 16-8 12-4zm411 278-19 3-13 5-14 9-10 9-5 5-6 9-7 14-4 15-2 14-1 18v48l2 18 5 19 8 17 11 12 7 7 14 10 14 5 11 3 10 1 33 1 48-1 16-3 16-6 10-6 11-9 10-11 6-10 6-16 3-13 1-8 1-23v-36l-1-23-3-14-8-20-7-11-14-14-14-9-16-6-15-3zm260 279-15 2-14 4-14 7-16 12-10 11-7 12-6 16-3 21-1 39v18l1 20 3 17 6 16 8 13 11 12 15 11 14 7 15 3 17 1h62l21-2 12-3 16-8 11-8 12-12 9-14 6-18 3-19 1-27v-35l-1-21-4-15-8-18-10-13-8-8-13-9-15-7-17-4-11-1zm185 424-43 1-17 4-12 5-12 7-12 11-7 7-8 14-5 12-3 13-1 10v75l3 19 4 12 6 11 10 13 9 9 16 10 12 5 14 3 8 1 25 1h17l28-1 23-3 18-6 14-8 12-11 8-10 8-15 4-15 2-12 1-20v-55l-2-15-5-17-9-17-9-11-8-8-13-8-14-6-16-4-13-1z" fill="#FEFEFE"/>
<path transform="translate(216,494)" d="m0 0h133l16 2 15 6 10 7 9 8 8 13 4 11 2 12 1 15v121l-3 22-4 10-7 11-10 11-16 9-8 4-12 2-13 1h-72l-41-1-26-2-13-4-10-6-10-9-8-9-6-10-4-13-2-20v-124l2-14 5-15 5-9 8-10 13-10 11-5 11-3z" fill="#FEFEFE"/>
<path transform="translate(305,797)" d="m0 0h79l27 2 14 3 14 7 11 8 10 9 9 14 5 11 3 14 1 9v95l-3 18-5 12-6 10-9 11-11 8-12 6-13 4-14 2-17 1h-84l-14-3-16-7-13-9-9-8-8-11-5-12-4-16-1-8-1-28v-29l1-32 2-16 4-13 8-16 7-9 8-8 15-10 13-6z" fill="#FEFEFE"/>
<path transform="translate(163,1041)" d="m0 0h44l14 3 12 6 8 7 9 13 5 12 3 17 1 19-2 23-3 12-6 11-6 8-7 7-14 7-12 3-8 1h-40l-14-2-13-5-10-8-7-8-5-10-4-15-2-25 1-27 4-15 6-11 9-10 11-7 12-4z" fill="#FEFEFE"/>
</svg>
