<?xml version="1.0" encoding="UTF-8"?>
<svg version="1.1" viewBox="0 0 1971 2048" width="515" height="535" xmlns="http://www.w3.org/2000/svg">
<path transform="translate(139,66)" d="m0 0h353l119 1 88 1 6 4 4 6 2 7v6l-5 6-6 2-203 1-3 4-1 4v259l-1 279-1 552v207l1 125 1 14 2 7 5 2h482l29-3 31-5 25-7 23-10 19-10 16-11 11-9 12-11 7-7 11-14 10-13 11-18 15-27 10-23 11-30 20-65 8-30 9-38 14-72 4-14 5-10 5-5 5-1 7 2 5 5 4 6 1 4 1 14 1 31v133l-1 75-1 110-1 31-3 17-4 10-8 11-8 7-10 5-8 2-10 1-59 1-398 2h-59l-651-2-7-3-4-10 1-10 4-5 7-3 13-1h157l8-1 2-5 2-7v-1432l-4-8-3-1h-174l-9-2-3-5v-11l4-8 6-5 9-1z" fill="#FCFCFD"/>
<path transform="translate(1285,449)" d="m0 0h285l89 1h134l18 2 5 3 3 7v14l-5 4-7 2-159 1-7 3-3 4-1 4v1071l-1 162-1 44v52l1 13 4 7 1 4h154l13 2 9 4 3 9-1 10-5 6-9 2-39 1h-103l-59-1h-341l-7-2-5-6-1-11 2-7 5-5 6-2h50l70 1h33l12-1 4-10 1-8v-82l-1-306-1-86-1-203-2-9-1-3-15-3-21-3-5-3-4-10-1-4v-9l3-5 2-1 35-1 5-2 4-6 2-12v-146l-2-440-3-7-3-3-3-1-157-1-10-1-4-2-3-6v-7l4-13 4-4z" fill="#F8B861"/>
<path transform="translate(577,449)" d="m0 0h22l52 1h54l62-1h72l200 1 7 3 3 9v13l-3 5-3 2-25 1h-122l-23 1-5 5-2 6-1 36v544l1 16 3 7 4 3 6 1 22 1h56l151-1 47-1h52l5 3 1 2v8l-4 11-4 6-5 4-10 2h-310l-10 2-3 4-1 4-1 17v247l-1 55-4 6-5 4-4 1-88 1h-76l-17-1-5-4-3-6-1-746v-217l-2-11-5-7-5-2-64-1-9-1-5-4-3-7v-10l4-8z" fill="#F8B861"/>
<path transform="translate(669,1659)" d="m0 0h176l13 2 6 3 1 2v168l2 7 3 3v2l6 1h31l30-1h91l12 2 6 4 3 4 1 9-3 9-5 5-11 2h-96l-70-1h-370l-9-2-6-5-3-8v-8l4-6 4-3 3-1 16-1h66l87 2 1-7 2-7 1-13v-98l-1-33v-23l5-6z" fill="#F9B961"/>
<path transform="translate(1285,449)" d="m0 0h285l89 1h134l18 2 5 3 3 7v14l-5 4-7 2-159 1-7 3-3 4-1 4v1071l-1 162-1 44v52l1 13 4 7 1 4h154l13 2 9 4 3 9-1 10-5 6-9 2-39 1h-103l-59-1h-341l-7-2-5-6-1-11 2-7 5-5 6-2h50l70 1h33l12-1 4-10 1-8v-82l-1-306-1-86-1-203-2-9-1-3-15-3-21-3-5-3-4-10-1-4v-9l3-5 2-1 35-1 5-2 4-6 2-12v-146l-2-440-3-7-3-3-3-1-157-1-10-1-4-2-3-6v-7l4-13 4-4zm213 6-22 1-12 2h-8l-9 3-2 2-7 4-2 4 1 8 1 10 1 51-1 257v22l-1 47v12l1 22 1 64 1 22 2 27v30l1 32v13l-2 11-3 5v2l-14 7-15 2-3 4 2 6 2 3 10 2 7 2 9 4 2 6 1 16v79l1 140v39l-1 67-3 109v17l1 35 1 32 3 45 1 8 2 29 1 12-1 36-2 26-4 17-5 5-5 4v2h2l-4 5-1 4 4 5 7 1 22 1h177l3-2-3-2v-18l-3-7-2-27v-96l1-28v-185l2-95v-131l-1-78-1-24v-31l1-8v-197l1-60-1-92v-137l-1-59v-55l2-58 3-12 2-2v-5l-6-4-3-3-12-2-36-3z" fill="#D1B782"/>
<path transform="translate(577,449)" d="m0 0h22l52 1h54l62-1h72l200 1 7 3 3 9v13l-3 5-3 2-25 1h-122l-23 1-5 5-2 6-1 36v544l1 16 3 7 4 3 6 1 22 1h56l151-1 47-1h52l5 3 1 2v8l-4 11-4 6-5 4-10 2h-310l-10 2-3 4-1 4-1 17v247l-1 55-4 6-5 4-4 1-88 1h-76l-17-1-5-4-3-6v-188h1l1 6v62l1 76 2 34 1 9h2v2l14 2h12l12 1h76l62-2 7-1 2-4 1-1 1-14 1-37v-181l2-95 2-5 4-3h2v-10l-6-10-2-3-2-20v-47l1-67v-297l-1-55-1-13 1-85 1-34 2-10 1-8-4-4-5-2 1-3-9-1h-11l-27-2h-59l-51 1-20 2-6 2 1 3-4 8-2 6 1 5v95l-2 89-1 80-1 23h-1l-1-50v-217l-2-11-5-7-5-2-64-1-9-1-5-4-3-7v-10l4-8z" fill="#D1B782"/>
<path transform="translate(669,1659)" d="m0 0h176l13 2 6 3 1 2v168l2 7 3 3v2l6 1h31l30-1h91l12 2 6 4 3 4 1 9-3 9-5 5-11 2h-96l-70-1h-370l-9-2-6-5-3-8v-8l4-6 4-3 3-1 16-1h66l87 2 1-7 2-7 1-13v-98l-1-33v-23l5-6zm43 6-38 3-4 2-3 10-1 24v145l-3 5v2l-6 1-1 6h3l-2 3v4l3 2h3v2l-2 1 13 1 84 1 79-1h14l6-2v-2l2-1 2-5-1-14 1-2-2-35-2-126-1-15-2-6-1-2-37-1z" fill="#D1B782"/>
<path transform="translate(85,73)" d="m0 0 2 1 2 13 3 4 14 1h40l19 1h81l13-1 13 1 9 6 1 3 1 46 1 294v691l-1 408-1 10-5 5-16 2h-42l-43 2-33-1h-50l-4 4-1 17v3l2 1-5-1-4-7-1-10 3-7 6-4 3-1 13-1h157l8-1 2-5 2-7v-1432l-4-8-3-1h-174l-9-2-3-5v-11z" fill="#C4D9ED"/>
<path transform="translate(1285,449)" d="m0 0h285l89 1h134l18 2 5 3 3 7v14l-5 4-7 2-159 1-7 3-3 4-1 4v665l-1 13-2-3-2-9v-10l1-15v-58l-1-1-1-129 1-60-1-92v-137l-1-59v-55l2-58 3-12 2-2v-5l-6-4v-2l-5-1-31-3-14-1v-2h-49l-110 1-33 1h-77l-26 1h-30l-2 10v9l1 4-3 1-4-4-1-3v-7l4-13 4-4z" fill="#D1B782"/>
<path transform="translate(577,449)" d="m0 0h22l52 1h54l62-1h72l200 1 7 3 3 9v13l-3 5h-2v-15l-1-9-2-1h-264l-2 2h-27l-51 1-20 2-6 2 1 3-4 8-2 6 1 5v95l-2 89-1 80-1 23h-1l-1-50v-217l-2-11-5-7-5-2-64-1-9-1-5-4-3-7v-10l4-8z" fill="#D2B883"/>
<path transform="translate(1532,453)" d="m0 0h25l24 1-1 2h-82l-22 1-12 2h-8l-8 3-3 2-5 3h-2l-1 8 2 13 1 52-1 10-2-2v-19l-1-31-2-12-4-2-6 1-3-1-157-1-10-1-1-13 1-10 2-3h36l26-1h82l33-1z" fill="#D1B782"/>
<path transform="translate(1291,1120)" d="m0 0 9 2 5 5 4 6 1 4 1 14 1 31v133l-1 55-2-2v-16l-1-49-1-101-1-37-2-20-1-8-3-1v-2l-8 3-4 5-4 14-6 26-7 24-2 8-6 22-4 19-2 6-6 26-4 15-6 23-4 13-6 16-4 12-3 5-5 13-3 5-11 22-6 11-1 4h-2l-1 4-11 18-3 5h-2l-2 4-7 11-11 12-5 6-4-1 10-11 13-17 13-20 16-29 10-23 11-30 20-65 8-30 9-38 14-72 4-14 5-10 5-5z" fill="#C4D9ED"/>
<path transform="translate(1285,449)" d="m0 0h285l89 1h134l9 1 1 2-23 2-106 1h-30l-35-1-52-1h-25l-110 1-33 1h-77l-26 1h-30l-2 10v9l1 4-3 1-4-4-1-3v-7l4-13 4-4z" fill="#A49675"/>
<path transform="translate(1124,1508)" d="m0 0 1 3-8 6-12 8-5 4-10 5-13 5-17 6-22 5-8 2-18 4-24 2-71 1-55-1h-19l-23 1h-216l-56 1-40-1-12-1v-2l-4-2-2-5 1-7 2 2 2 7 5 2h482l29-3 31-5 25-7 23-10 19-10z" fill="#C4D9ED"/>
<path transform="translate(577,449)" d="m0 0h22l52 1h54l62-1h72l200 1 7 3 3 9v13l-3 5h-2v-15l-1-9-2-1h-388l-72 2-3 3-2 4-3 14h-2l-3-7v-10l4-8z" fill="#A59676"/>
<path transform="translate(1155,1101)" d="m0 0h52l5 3 1 2v8l-4 11-4 6-5 4-10 2h-319l3-3 8-1 47-1h270l4-5 1-6v-10l-1-2h-44l-31-1h-26l-71-1-15-1v-2l71-1 21-1z" fill="#A79876"/>
<path transform="translate(1426,1137)" d="m0 0 4 1v2l4 2 2 13v17l1 11v104l1 77v69l-2 10-4-2-1-86-1-203-2-9-1-3h-2z" fill="#AA9A77"/>
<path transform="translate(139,66)" d="m0 0h353l59 1v1l-22 2h-401l-17-1-2-2z" fill="#C4D9ED"/>
<path transform="translate(821,1582)" d="m0 0h38l107 1 70 1v1l-62 1-173 1h-59l-190-1-150-1v-1l246-1z" fill="#C4D9ED"/>
<path transform="translate(1425,483)" d="m0 0h7l3 3 2 12 1 39-1 85v35l-1 87v13l-1 8h-1l-3-57-1-213-3-7-2-2z" fill="#A99A77"/>
<path transform="translate(1635,1211)" d="m0 0h1l1 202v152l-1 162-1 17-2 1v-76l1-20v-23l-1-18 1-6-1-4-1-17 1-8-1-17v-65l1-48 1-122v-27l-1-72 1-9z" fill="#A89976"/>
<path transform="translate(706,77)" d="m0 0 3 1 2 7v6l-5 6-6 2-203 1-3 4-3 20h-1v-21l2-5 10-4 27-2 68 1h97l5-2h3l1-7z" fill="#C4D9ED"/>
<path transform="translate(669,1659)" d="m0 0h176l5 2-4 2-80 1h-97l-2 3-1 9-1 61v61l-1 41-3 8h-3v-6l2-7 1-13v-98l-1-33v-23l5-6z" fill="#A59675"/>
<path transform="translate(1632,1076)" d="m0 0 2 1v61l-1 20 1 9 1 2 1-10h1v254h-1l-1-200-1 15 1 70v39l-1 109-1 59v58l1 15-2 7h-1l-1-11v-63l2-95v-131l-1-78-1-24v-31l1-8v-61z" fill="#D1B782"/>
<path transform="translate(1635,870)" d="m0 0h1l1 142v147l-1 13-2-3-2-9v-10l1-15v-58l-1-1-1-129 1-54 1-1z" fill="#C4AE7F"/>
<path transform="translate(863,1830)" d="m0 0 2 4 2 7 3 3v2l6 1h31l30-1h91l12 2 6 4 3 4 1 9-3 9-4 1v-13l-1-10h-13l-10 1h-71l-11-1h-18l-43-1-8-2-4-4-1-2z" fill="#A49675"/>
<path transform="translate(490,156)" d="m0 0h1l1 9 1 62v140l-1 27-3-1-1-11v-148l1-69z" fill="#C4D9ED"/>
<path transform="translate(504,1846)" d="m0 0h66l56 2-3 2-37 2h-18l-6 1h-46l-24 1-7 1-5 10h-3v-8l4-6 4-3 3-1z" fill="#A59775"/>
<path transform="translate(646,481)" d="m0 0h13l4 1 2 4v93l-1 64-1 33-2 2v-174l-2-11-5-7-10-3z" fill="#A79776"/>
<path transform="translate(1632,1222)" d="m0 0 2 4 1 72v39l-1 109-1 59v58l1 15-2 7h-1l-1-11v-63l2-95v-131l-1-62z" fill="#D2B883"/>
<path transform="translate(676,1474)" d="m0 0h165l4 2-2 1-80 1h-76l-9-1-2-1z" fill="#AA9A77"/>
<path transform="translate(1700,1847)" d="m0 0h95l9 1 2 2-12 1h-83l-46-2v-1z" fill="#A79876"/>
<path transform="translate(1263,1847)" d="m0 0h50l40 1 10 1v1l-7 1-46 1h-23l-9 1h-12l-10-1 1-3z" fill="#A59675"/>
<path transform="translate(669,1663)" d="m0 0 45 1-2 2-38 3-3 1-3 10-1 24-1 94-2-1v-75l1-46 1-9z" fill="#D2B883"/>
<path transform="translate(1675,1877)" d="m0 0h89l15 1-1 2-12 1h-103l-15-1 4-2z" fill="#AF9E78"/>
<path transform="translate(665,579)" d="m0 0h1v46l-1 43-1 80-1 23h-1l-1-50v-43l1-2 1-33 1-63z" fill="#D2B883"/>
<path transform="translate(1635,1042)" d="m0 0h1l1 56v61l-1 13-2-3-2-9v-10l1-15v-59l1-31z" fill="#A39575"/>
<path transform="translate(1634,526)" d="m0 0h1l1 9v155h-1l-1-35-1-72v-37z" fill="#A39575"/>
<path transform="translate(952,1877)" d="m0 0 78 1 3 2-2 1h-96l-17-1 4-2h12z" fill="#B19F79"/>
<path transform="translate(1430,1094)" d="m0 0h2l-1 5-3 5-8 2-17 2-12 1-4 1-2 5-2 3-2-1v-9l3-5 2-1 35-1 5-2z" fill="#A89876"/>
<path transform="translate(1635,1211)" d="m0 0h1v126l-2-3v-40l-1-72 1-9z" fill="#A39575"/>
<path transform="translate(863,1715)" d="m0 0 2 3v72l-1 6h-1l-1-23-1-10 1-39z" fill="#B19F79"/>
<path transform="translate(1303,1548)" d="m0 0 2 1-3 9-8 11-8 7-10 5-8 2h-7v-1l9-3 9-4 5-3 5-5 9-10 3-4z" fill="#C7DBEE"/>
<path transform="translate(1532,453)" d="m0 0h25l24 1-1 2h-81l-1-2z" fill="#D2B883"/>
<path transform="translate(1632,1076)" d="m0 0 2 1v61l-1 12-2 1v-68z" fill="#D2B883"/>
<path transform="translate(1267,1876)" d="m0 0h37l10 1h20l3 2h-75l2-2z" fill="#A39575"/>
<path transform="translate(1042,1850)" d="m0 0 4 2 3 4 1 9-3 9-4 1v-13z" fill="#A69A7C"/>
<path transform="translate(663,711)" d="m0 0h1v37l-1 23h-1l-1-59z" fill="#D2B883"/>
<path transform="translate(663,676)" d="m0 0h1v35l-3 1v-34z" fill="#CFB682"/>
<path transform="translate(863,1665)" d="m0 0 2 1v39h-2l-1-30z" fill="#A89876"/>
<path transform="translate(868,484)" d="m0 0h2l-2 5-2 6-2 15h-1l-1-11v-10l4-4z" fill="#A69776"/>
<path transform="translate(1291,1120)" d="m0 0 5 1-4 4-5 3-5 2 2-5 4-4z" fill="#A8A089"/>
<path transform="translate(1637,485)" d="m0 0 4 1-3 4-3 12h-1v-14z" fill="#A79776"/>
<path transform="translate(1438,530)" d="m0 0h2v10l-1 10-2-2v-17z" fill="#D2B883"/>
<path transform="translate(1817,1857)" d="m0 0h2l1 7-1 8-2 1-1-6v-8z" fill="#AD9F7D"/>
<path transform="translate(1405,1134)" d="m0 0h8l8 1 3 1v2l-12-1-7-2z" fill="#AB9B77"/>
<path transform="translate(1634,1837)" d="m0 0h2l4 6v4h-3l-3-6z" fill="#A79876"/>
<path transform="translate(868,1137)" d="m0 0 1 3-3 7-1 5-2-2 1-7 3-5z" fill="#AC9B77"/>
</svg>
