<?xml version="1.0" encoding="UTF-8"?>
<svg version="1.1" viewBox="0 0 2048 884" width="294" height="127" xmlns="http://www.w3.org/2000/svg">
<path transform="translate(1472,88)" d="m0 0 5 1 7 16 18 48 12 31 8 21 10 25-3 1-24-9-19-9-9-1-7 8-10 14-9 11-12 15-7 9-13 14-7 8-12 13-11 12-9 10-42 42-8 7-9 9-8 7-8 8-8 7-10 9-15 12-2 4 11 14 7 7 7 8 14 15 9 8v2l6 1 16-16 7-8 9-10 15-16 9-11 18-18 4-5 7-6 5 1 15 16 11 11 7 8 15 15 7 8 16 17 15 16 12 13 11 12 12 13 14 15 6 6v2h2l7 8 13 13 7 8 18 18 7 8 14 15 11 12 10 10 7 8 20 20 7 8 9 10 7 8 12 14 8 8 7 8 9 10 24 24 7 8 25 25 7 8 9 10 8 7 3 4-5-2-14-11-12-9-13-10-16-13-12-9-17-13-30-23-19-14-18-13-14-11-21-16-20-15-18-14-16-12-17-13-19-14-16-12-14-10-21-16-17-13-18-14-18-13-19-14-13-10-6-2-13 9-19 14-16 12-19 14-36 26-20 14-18 13-12 9-18 13-13 10-17 12-13 10-11 8-52 39-13 10-17 13-14 11-15 12-12 8-2-1 57-57 7-8 15-16 7-8 9-9 7-8 19-19 7-8 12-12 7-8 40-40 7-8 9-9 7-8 10-10 7-8 13-13 3-4-1-4-7-8-11-10-11-9-17-14-7-1-19 14-23 16-19 12-18 11-25 15-23 13-47 24-18 8-41 19-40 19-27 13-28 13-16 8-30 14-24 11-27 12-22 9-21 10-48 19-28 11-27 10-18 6-42 15-44 14-35 10-37 9-42 10-23 5-9 1 3-3 15-6 31-11 21-8 50-20 31-12 38-16 27-11 26-11 43-19 17-7 26-12 33-15 39-19 23-11 42-21 22-12 28-14 22-12 18-10 24-14 22-13 15-9 24-15 45-30 16-11 19-14 28-22 17-14 3-3-1-4-8-7-14-11-11-10-10-8-14-12-10-8-14-12-11-9-16-13-13-11-13-10-9-8-5 1-13 10-10 9-11 9-13 12-11 9-13 12-8 7-10 9-11 9-15 13-10 9-11 9-11 10-11 9-15 13-11 10-11 9-14 13-11 9-28 24-13 11-14 12-12 11-8 7-10 9-18 14-6 5-7-3-24-13-24-15-27-16-28-16-19-11-5 2-10 8-13 11-10 8-14 11-16 13-18 14-13 10-16 12-18 14-13 10-14 11-18 14-14 11-13 10-16 13-11 9-14 11-16 13-13 10-18 14-14 11-16 13-14 11-16 13-13 11-14 12-14 11-11 9-2-1 9-10 24-24 7-8 24-24 7-8 29-31 9-10 11-12 16-17 12-13 13-13 7-8 11-11 7-8 7-7 7-8 16-17 4-5h2l2-4 19-19 7-8 7-7 7-8 8-8 7-8 7-7 7-8 9-9 7-8 13-13 7-8 8-8 7-8 12-12 7-8 7-7 7-8 15-16 11-12 5-2 11 9 8 8 11 9 8 8 11 9 13 12 11 9 15 14 11 9 15 14 10 9 2 2 4-1 6-7 8-7 9-10 47-47 7-8 34-34 7-8 61-61 4-5 5-5 6-5 7-8 25-25 5-6 38-38 7-8 11-11 9-11 31-31 4 1 11 11 9 11 9 10 9 11 9 10 9 11 9 10 9 11 12 13 7 8 13 15 7 7 9 11 13 15 46 46 6 5 5-2 16-15 7-8 7-7 7-8 15-16 12-13 28-30 12-13 11-13 11-14 12-15 13-18 3-6-10-5-27-8-2-2 5-5 10-7 21-14 17-12 19-14 17-12 20-14 12-8z" fill="#0342A3"/>
<path transform="translate(1472,88)" d="m0 0 5 1 7 16 18 48 12 31 8 21 10 25-3 1-24-9-19-9-9-1-7 8-10 14-9 11-12 15-7 9-4 3v-2l-6 4-1 2h-2l-2 4-11 12-13 13-7 8-4 5-11 9-8 8-8 7-7 7-10 8-13 11-11 9-7 8-11 8-9 6-9 5-6 4-2-1v-6h-5l-1 3-7-4-15-1-5-1v-3h-2l-5-5-2-1 1-8 4-5 7-4 1-2h2l2-4 12-16h2l2-4 7-8 4-4h2l2-5 2-4 4-4 4-6h2l2-4 8-8 1-2h2l2-4 10-10 8-11 11-14 11-12 5-6v-3-3l13-16 13-18 3-6-10-5-27-8-2-2 5-5 10-7 21-14 17-12 19-14 17-12 20-14 12-8z" fill="#0593F4"/>
<path transform="translate(1411,410)" d="m0 0 8 2 6 5v2h2v2l3 1v2h2l11 14 4 4v2h2v2l4 2v2h2l9 11 37 37 7 8 14 14 9 11 12 14 15 16 9 10 10 10v2h2v2l4 2 11 11 7 8 3 5v2h2v2l2 1-2 4-7-4v-2l-5-2-10-5-3-4-7-3-11-8-10-4-4-2-10-1-15-8-11-6-6-4v-2l-5-2-5-4-11-6-12-8-11-7-9-6-12-9 1-2-4-1-3-4-2-4-9-10-10-7-7-4-4 1-10-4-6-4-2-2h-5l-3-2v-2l-7 1h-11l1-3-2-1 2-6 7-16 9-14 9-10 6-7 8-7 7-4z" fill="#036FCF"/>
<path transform="translate(1371,209)" d="m0 0h2l-1 6-4 7-6 8-12 18-9 10-1 2h-2l-2 5-9 17-3 8 1 7 2 2v3l2 1v2l3 3 12-2 9-2 26-8 16-9 14-7 7-7 2-3h2l2-4 7-9h2l2-4 9-10 1-2h2l2-4 7-9h2l2-4h2l2-4 6-5 4-1-1 5-15 20-14 17-9 12-5 4v-2l-6 4-1 2h-2l-2 4-11 12-13 13-7 8-4 5-11 9-8 8-8 7-7 7-10 8-13 11-11 9-7 8-11 8-9 6-9 5-6 4-2-1v-6h-5l-1 3-7-4-15-1-5-1v-3h-2l-5-5-2-1 1-8 4-5 7-4 1-2h2l2-4 12-16h2l2-4 7-8 4-4h2l2-5 2-4 4-4 4-6h2l2-4 8-8 1-2h2l2-4 10-10 8-11 11-14 11-12 5-6v-3-3l13-16 9-12z" fill="#077EDF"/>
<path transform="translate(1457,231)" d="m0 0h4l-2 4-20 25-7 9-4 3v-2l-6 4-1 2h-2l-2 4-11 12-13 13-7 8-4 5-11 9-8 8-8 7-7 7-10 8-13 11-11 9-7 8-11 8-9 6-9 5-6 4-2-1v-6h-5l-1 3-7-4-15-1-5-1v-3h-2l-5-5-2-1 1-8 4-5 7-4 1-2h2l2-4 12-16h2l2-4 7-8 4-4h2l2-5 2-4 4-4 4-6h2l2-4 8-8 1-2h2l2-4 10-10 5-6v3l-9 11h-2v2h-2l-2 4-9 10-6 11-7 10-6 8-9 10-9 14-2 5 11-1 5-6 6-1 4 2 18-1 13-4 8-4 10-2h3l3-3 12-7 7-6 5-5 11-10 11-9 5-5 6-7h2l2-4 3-3h2l2-4 8-8 7-8 2-3h2l2-4h2v-2h2l2-4 7-7 9-11 4-5h2l2-4z" fill="#0470D0"/>
<path transform="translate(1472,88)" d="m0 0 5 1 7 16 18 48 12 31 8 21 10 25-3 1-24-9-21-10v-2l7-1 7 2 7 3 9 2h2v-10l-9-25-6-17-6-13-12-36-8-16-5-4-5 3-4 5-8 6-7 2-4 5-6 4-14 10-17 13-15 11-16 12h-2l-2 7-4 3 3 9 3 5-1 3-7-1-24-7-2-2 5-5 10-7 21-14 17-12 19-14 17-12 20-14 12-8z" fill="#0675D4"/>
<path transform="translate(1479,97)" d="m0 0h2l21 56 12 31 8 21 10 25-3 1-24-9-21-10v-2l7-1 7 2 7 3 9 2h2v-10l-9-25-6-17-6-13-12-36-8-17z" fill="#0A81E0"/>
<path transform="translate(1032,184)" d="m0 0 6 5 5 7 3 7v7l-1 2-14-7-1 1-1 2h-8l-4-2 1-6 3-5 3-1 4-6h2v-2h2z" fill="#0470D0"/>
<path transform="translate(1395,142)" d="m0 0 4 1-5 4-5 5-11 7-8 7h-2l-2 4-5 4-6 3 1 5 4 4-1 3-9-1-12-4 1-3 14-10 21-14 17-12z" fill="#0771CF"/>
<path transform="translate(1404,141)" d="m0 0 2 1-13 10-11 8-8 6h-2l-2 7-4 3 3 9 3 5-1 3-7-1-7-2 2-1-1-6-4-2 1-5 9-5 4-5 16-12 11-7z" fill="#077EDF"/>
<path transform="translate(1395,142)" d="m0 0 4 1-5 4-5 5-11 7-8 7-10 6-3-1 2-4 15-10 17-12z" fill="#044CAC"/>
<path transform="translate(1521,209)" d="m0 0 3 1 8 20-3 1-7-3-2-3 2-4z" fill="#0473D3"/>
<path transform="translate(1371,209)" d="m0 0h2l-1 6-4 7-9 12h-2l2-5v-3l2-4 9-12z" fill="#0980E0"/>
<path transform="translate(1472,88)" d="m0 0 5 1 3 6-2 4-5-2-4-2-6 5 1-4 3-5z" fill="#057BDC"/>
<path transform="translate(1443,112)" d="m0 0v3l-14 10-11 8-10 8-2-1 12-11 10-8 11-6z" fill="#077EDF"/>
<path transform="translate(1404,141)" d="m0 0 2 1-13 10-11 8-8 6-3-1 5-5 8-6 11-7z" fill="#0578D8"/>
<path transform="translate(1347,175)" d="m0 0h2l1 7 2 2v3l-9-1-5-2 1-3z" fill="#064FAF"/>
<path transform="translate(1358,226)" d="m0 0 3 1-8 14-5 5 1-6-2 1 2-4z" fill="#0471D1"/>
<path transform="translate(1345,248)" d="m0 0v3l-8 8-11 15-5 7h-2l2-5 11-14 11-12z" fill="#0470D0"/>
<path transform="translate(1473,88)" d="m0 0 4 1 1 7-2 1-3-2-1-5z" fill="#0348A9"/>
<path transform="translate(1526,222)" d="m0 0h3l3 9-4-1-2-2z" fill="#0A53B1"/>
<path transform="translate(1404,141)" d="m0 0 2 1-13 10-2-1 5-5z" fill="#067DDE"/>
<path transform="translate(1357,234)" d="m0 0v3l-5 8h-2l2-4zm-8 11m-2 1 2 1h-3z" fill="#067CDD"/>
<path transform="translate(1813,821)" d="m0 0" fill="#0342A3"/>
</svg>
